<?xml version="1.0" encoding="UTF-8"?> <svg xmlns="http://www.w3.org/2000/svg" height="52px" viewBox="1 0 511.999 511" width="52px" fill="#0060ab"><path d="m105.996094 203.1875h12.382812v12.527344c0 8.285156 6.71875 15 15 15h12.1875v69.242187c0 8.285157 6.714844 15 15 15s15-6.714843 15-15v-69.242187h12.1875c8.28125 0 15-6.714844 15-15v-103.109375h4.5625c8.285156 0 15-6.714844 15-15v-82.105469c0-8.285156-6.714844-15-15-15h-93.5c-8.285156 0-15 6.714844-15 15v46.5c-29.597656 3.5625-52.617187 28.8125-52.617187 59.355469v22.03125c-.003907 32.972656 26.824219 59.800781 59.796875 59.800781zm-29.800782-81.832031c0-13.953125 9.648438-25.695313 22.617188-28.917969v5.167969c0 8.285156 6.71875 15 15 15h4.566406v60.582031h-12.382812c-16.433594 0-29.800782-13.367188-29.800782-29.800781zm0 0"></path><path d="m300.800781 203.1875h12.382813v12.527344c0 8.285156 6.714844 15 15 15h12.183594v25.429687h-.910157c-8.285156 0-15 6.71875-15 15v28.8125c0 8.285157 6.714844 15 15 15h31.824219c8.285156 0 15-6.714843 15-15v-28.8125c0-8.28125-6.714844-15-15-15h-.914062v-25.429687h12.1875c8.285156 0 15-6.714844 15-15v-103.109375h4.5625c8.285156 0 15-6.714844 15-15v-82.105469c0-8.285156-6.714844-15-15-15h-93.5c-8.28125 0-15 6.714844-15 15v46.5c-29.597657 3.5625-52.617188 28.8125-52.617188 59.355469v22.03125c0 32.972656 26.824219 59.800781 59.800781 59.800781zm-29.800781-81.832031c0-13.953125 9.644531-25.695313 22.617188-28.917969v5.167969c0 8.285156 6.714843 15 15 15h4.566406v60.582031h-12.382813c-16.433593 0-29.800781-13.367188-29.800781-29.800781zm0 0"></path><path d="m430.722656 347.726562h-349.445312c-44.816406 0-81.277344 36.460938-81.277344 81.277344v.3125c0 44.816406 36.460938 81.277344 81.277344 81.277344h349.445312c44.816406 0 81.277344-36.460938 81.277344-81.277344v-.3125c0-44.816406-36.460938-81.277344-81.277344-81.277344zm-2.632812 104.152344c-12.546875 0-22.71875-10.171875-22.71875-22.71875s10.171875-22.714844 22.71875-22.714844c12.542968 0 22.714844 10.167969 22.714844 22.714844s-10.171876 22.71875-22.714844 22.71875zm-149.371094-22.71875c0 12.546875-10.171875 22.71875-22.71875 22.71875s-22.71875-10.171875-22.71875-22.71875 10.171875-22.714844 22.71875-22.714844 22.71875 10.167969 22.71875 22.714844zm-194.808594-22.714844c12.546875 0 22.71875 10.167969 22.71875 22.714844s-10.171875 22.71875-22.71875 22.71875c-12.542968 0-22.714844-10.171875-22.714844-22.71875s10.171876-22.714844 22.714844-22.714844zm0 0"></path></svg> 