<?xml version="1.0" encoding="UTF-8"?> <!-- Generator: Adobe Illustrator 22.0.1, SVG Export Plug-In . SVG Version: 6.00 Build 0) --> <svg xmlns="http://www.w3.org/2000/svg" xmlns:xlink="http://www.w3.org/1999/xlink" id="Слой_1" x="0px" y="0px" viewBox="0 0 495 73.5" style="enable-background:new 0 0 495 73.5;" xml:space="preserve"> <style type="text/css"> .st0{clip-path:url(#SVGID_2_);} .st1{clip-path:url(#SVGID_4_);fill:#DF0A15;} .st2{fill:#0060AB;} .st3{font-family:'Arial-Black';} .st4{font-size:64.1435px;} .st5{fill:#FFFFFF;} </style> <g> <defs> <rect id="SVGID_1_" x="-10.7" y="-14.3" width="516" height="99.3"></rect> </defs> <clipPath id="SVGID_2_"> <use xlink:href="#SVGID_1_" style="overflow:visible;"></use> </clipPath> <g class="st0"> <defs> <rect id="SVGID_3_" x="-23.1" y="-22" width="533.5" height="134.1"></rect> </defs> <clipPath id="SVGID_4_"> <use xlink:href="#SVGID_3_" style="overflow:visible;"></use> </clipPath> <path class="st1" d="M458.8,73.5c20.1,0,36.4-16.3,36.4-36.4c0-20.1-16.3-36.4-36.4-36.4c-20.1,0-36.4,16.3-36.4,36.4 C422.5,57.2,438.7,73.5,458.8,73.5"></path> </g> <g class="st0"> <path class="st2" d="M-0.2,14.1h38v9.8H14v7.3h22.1v9.4H14v9.1h24.5v10.4H-0.2V14.1z"></path> <path class="st2" d="M44.2,14.1h14.2v34.6h22.1v11.3H44.2V14.1z"></path> <path class="st2" d="M85.1,14.1h38v9.8H99.3v7.3h22.1v9.4H99.3v9.1h24.5v10.4H85.1V14.1z"></path> <path class="st2" d="M160.1,41.3l12.4,3.8c-0.8,3.5-2.2,6.4-3.9,8.7c-1.8,2.3-4,4.1-6.7,5.3c-2.7,1.2-6.1,1.8-10.2,1.8 c-5,0-9.1-0.7-12.2-2.2c-3.2-1.5-5.9-4-8.2-7.7c-2.3-3.7-3.4-8.3-3.4-14c0-7.6,2-13.4,6.1-17.5c4-4.1,9.8-6.1,17.1-6.1 c5.8,0,10.3,1.2,13.6,3.5c3.3,2.3,5.8,5.9,7.4,10.8l-12.5,2.8c-0.4-1.4-0.9-2.4-1.4-3.1c-0.8-1.1-1.8-1.9-2.9-2.5 c-1.1-0.6-2.4-0.9-3.9-0.9c-3.2,0-5.7,1.3-7.4,3.9c-1.3,1.9-1.9,4.9-1.9,9c0,5.1,0.8,8.6,2.3,10.5c1.5,1.9,3.7,2.8,6.5,2.8 c2.7,0,4.8-0.8,6.2-2.3C158.5,46.4,159.5,44.2,160.1,41.3z"></path> <path class="st2" d="M174.3,14.1h43.1v11.3H203v34.6h-14.2V25.5h-14.5V14.1z"></path> <path class="st2" d="M222.1,60.1V14.1h23.6c4.4,0,7.7,0.4,10.1,1.1c2.3,0.8,4.2,2.1,5.6,4.2c1.4,2,2.1,4.5,2.1,7.4 c0,2.5-0.5,4.7-1.6,6.6c-1.1,1.8-2.6,3.3-4.5,4.5c-1.2,0.7-2.9,1.3-5,1.8c1.7,0.6,2.9,1.1,3.7,1.7c0.5,0.4,1.3,1.2,2.3,2.4 c1,1.2,1.7,2.2,2,2.9l6.9,13.3h-16l-7.6-14c-1-1.8-1.8-3-2.6-3.5c-1-0.7-2.2-1.1-3.5-1.1h-1.3v18.6H222.1z M236.4,32.7h6 c0.6,0,1.9-0.2,3.8-0.6c0.9-0.2,1.7-0.7,2.3-1.4c0.6-0.8,0.9-1.7,0.9-2.7c0-1.5-0.5-2.6-1.4-3.4c-0.9-0.8-2.7-1.2-5.3-1.2h-6.2 V32.7z"></path> <path class="st2" d="M267.1,37.1c0-7.5,2.1-13.3,6.3-17.5c4.2-4.2,10-6.3,17.4-6.3c7.6,0,13.5,2.1,17.7,6.2 c4.1,4.1,6.2,9.9,6.2,17.2c0,5.4-0.9,9.8-2.7,13.2c-1.8,3.4-4.4,6.1-7.8,8c-3.4,1.9-7.7,2.9-12.8,2.9c-5.2,0-9.5-0.8-12.9-2.5 c-3.4-1.6-6.1-4.3-8.3-7.8C268.2,47,267.1,42.5,267.1,37.1z M281.3,37.2c0,4.6,0.9,8,2.6,10c1.7,2,4.1,3,7,3c3,0,5.4-1,7.1-3 c1.7-2,2.5-5.5,2.5-10.7c0-4.3-0.9-7.5-2.6-9.5c-1.7-2-4.1-3-7.1-3c-2.9,0-5.2,1-6.9,3C282.2,29.2,281.3,32.5,281.3,37.2z"></path> <path class="st2" d="M320.5,14.1h13.2L351,39.5V14.1h13.4v45.9H351l-17.2-25.2v25.2h-13.3V14.1z"></path> </g> <g class="st0"> <text transform="matrix(1 0 0 1 380.6407 53.6367)" class="st2 st3 st4">–</text> </g> <g class="st0"> <path class="st5" d="M437.6,14.1h43.1v11.3h-14.5v34.6h-14.2V25.5h-14.5V14.1z"></path> </g> </g> </svg> 